Simulation
nRows=24
nColumns=15
endheader
time  TH_x TH_y TH_z SC_y  SC_z  SC_x  AC_y  AC_z  AC_x  GH_y  GH_z  GH_yy  EL_x  PS_y
5.745  0.000000  0.000000  0.000000  -53.68157758658973  19.39700906776775  18.09875086394155  46.19474455111917  10.768160992260512  13.495822162137387  37.45481100782745  55.35217046131482  -46.72306040415998  18.581501534721806  120.000000
5.80245  0.000000  0.000000  0.000000  -52.379190215886524  18.718058916580908  15.584094579343562  45.58651202043313  10.480033440432324  12.35110351167914  38.84779404595634  54.48454779947654  -47.43425551293229  18.87450879058466  120.000000
5.8599  0.000000  0.000000  0.000000  -50.83292610622376  17.860094873583215  12.532687311568033  44.871037879196564  10.115335838687924  11.20918077075873  40.33890923815908  53.20406538361385  -47.946140512728654  19.267683009740654  120.000000
5.91735  0.000000  0.000000  0.000000  -49.08762760292203  16.785409777972312  9.069982299750604  44.05549592721339  9.722713205697904  10.159342196561184  41.783041261907776  51.47809312858859  -48.168584100064635  19.671490765676708  120.000000
5.9748  0.000000  0.000000  0.000000  -47.186838486141944  15.47724734250535  5.350735255842683  43.14413013911776  9.388064546789277  9.275441322346966  43.06629126207731  49.28043531910669  -48.06393515924694  19.977549749425602  120.000000
6.03225  0.000000  0.000000  0.000000  -45.1747486566195  13.947205910495871  1.544226692443174  42.1604154571332  9.21614282691801  8.608378624403178  44.11995491240976  46.60952901032037  -47.65930913401486  20.09139412056981  120.000000
6.089700000000001  0.000000  0.000000  0.000000  -43.1023450548263  12.234155190650288  -2.1820420141434242  41.155157998808484  9.304805498322288  8.18690223654074  44.93140492052375  43.504271869361695  -47.04114791016693  19.96058757117394  120.000000
6.14715  0.000000  0.000000  0.000000  -41.0367697283229  10.399357647755807  -5.680679363779235  40.20007658181142  9.718552822387078  8.021832267703752  45.550709611879036  40.056580622092625  -46.339011979678624  19.58405903044329  120.000000
6.2046  0.000000  0.000000  0.000000  -39.06510761517247  8.527119999182785  -8.845465790980056  39.37808931752616  10.471760890877974  8.103314789773886  46.09745813184163  36.41104568746662  -45.710812078244786  19.000360957124037  120.000000
6.26205  0.000000  0.000000  0.000000  -37.28810675438115  6.711960495923335  -11.619437738499421  38.75486057757306  11.523169069473283  8.40546715079384  46.757691959345465  32.74075424476845  -45.32843365813167  18.271150742151008  120.000000
6.3195  0.000000  0.000000  0.000000  -35.80176697697499  5.044590068765039  -13.987223234044423  38.35736200444598  12.787980532162806  8.892921708500516  47.76308888580126  29.21276018240417  -45.36159629724336  17.47067048419676  120.000000
6.37695  0.000000  0.000000  0.000000  -34.67183906633682  3.60663028826492  -15.961624624707182  38.17877172681628  14.163402397213062  9.51991111577505  49.35652753360045  25.958113995019243  -45.9598771833084  16.681970676069103  120.000000
6.4344  0.000000  0.000000  0.000000  -33.91708174786001  2.4541895707703834  -17.566986747834573  38.18674235972728  15.550004456252443  10.237888501284303  51.74738233443606  23.05641560921749  -47.23524465340176  15.98910538703876  120.000000
6.49185  0.000000  0.000000  0.000000  -33.51007992466913  1.6111785605671007  -18.82793065976649  38.335063332681884  16.86433200366886  11.00457227538718  55.07301222981028  20.542472958037752  -49.2530249162363  15.465350130569954  120.000000
6.549300000000001  0.000000  0.000000  0.000000  -33.390636259541644  1.0729828956316074  -19.769676828545933  38.57717780822716  18.047318125150554  11.780277088744485  59.36660169073803  18.424082073219992  -52.02279529285548  15.159994533234142  120.000000
6.60675  0.000000  0.000000  0.000000  -33.485792728416804  0.8072897227531607  -20.42082074461824  38.86896141136887  19.065410369456814  12.525743133650192  64.53382069223036  16.69368862941661  -55.48460289788296  15.088710422098941  120.000000
6.6642  0.000000  0.000000  0.000000  -33.72351813894405  0.7623299906086425  -20.814361286474128  39.167535629982474  19.90520552448692  13.205559356297893  70.35055697489673  15.328037954311968  -59.495097593959606  15.236054214503675  120.000000
6.72165  0.000000  0.000000  0.000000  -34.03693022573951  0.8772024178342465  -20.988938604357994  39.43624736293472  20.570564877223266  13.786046535545726  76.4917626171232  14.283227321203723  -63.83116512604262  15.563151976707692  120.000000
6.7791  0.000000  0.000000  0.000000  -34.37242912956288  1.0923144160052811  -20.987289457401676  39.65221978927752  21.07480395598631  14.238987319908379  82.60793584196712  13.499102827402675  -68.2373014127128  16.012052233802347  120.000000
6.83655  0.000000  0.000000  0.000000  -34.68830806438335  1.3525868195069908  -20.850756592781597  39.80876104033861  21.431395129632413  14.54897150979308  88.411691377832  12.910282175589348  -72.48768096700778  16.506159152497585  120.000000
6.894  0.000000  0.000000  0.000000  -34.95754496828581  1.612161114472174  -20.6144088618695  39.91425595589806  21.650730243592196  14.714189810281109  93.72471277545161  12.460431181049483  -76.43003650663177  16.95833525897211  120.000000
6.95145  0.000000  0.000000  0.000000  -35.164541226467094  1.8422487066123245  -20.305981104374553  39.98981879013226  21.744712947603848  14.741202225284225  98.47188612639847  12.107128886353243  -79.99205257393314  17.289886876624383  120.000000
7.008900000000001  0.000000  0.000000  0.000000  -35.30222457838023  2.0280007869867007  -19.9445629198024  40.05707027187615  21.72940690602498  14.643659558001122  102.64840044859211  11.81766279468777  -83.1637882316044  17.455138810543126  120.000000
7.06635  0.000000  0.000000  0.000000  -35.37948766930049  2.1642231871924893  -19.540309157412885  40.12640264945225  21.62262026623342  14.442673733925455  106.28877080018239  11.567491288162692  -85.97918703460448  17.463020315513205  120.000000
